<?xml version="1.0" standalone="no"?>
<!DOCTYPE svg PUBLIC "-//W3C//DTD SVG 20010904//EN"
 "http://www.w3.org/TR/2001/REC-SVG-20010904/DTD/svg10.dtd">
<svg version="1.0" xmlns="http://www.w3.org/2000/svg"
 width="120.000000pt" height="120.000000pt" viewBox="0 0 120.000000 120.000000"
 preserveAspectRatio="xMidYMid meet">
<metadata>
Created by potrace 1.14, written by Peter Selinger 2001-2017
</metadata>
<g transform="translate(0.000000,120.000000) scale(0.100000,-0.100000)"
fill="#000000" stroke="none">
<path d="M360 1031 c-5 -11 -10 -56 -10 -100 l0 -81 -113 0 c-75 0 -117 -4
-125 -12 -17 -17 -17 -459 0 -476 8 -8 50 -12 125 -12 l113 0 0 -88 c0 -55 4
-92 12 -100 16 -16 690 -17 719 -2 18 10 19 26 19 438 0 320 -3 431 -12 440
-9 9 -104 12 -365 12 -338 0 -353 -1 -363 -19z"/>
</g>
</svg>
